ModelForces
version=1
nRows=4
nColumns=155
inDegrees=no

This file contains the forces exerted on a model during a simulation.

A force is a generalized force, meaning that it can be either a force (N) or a torque (Nm).

Units are S.I. units (second, meters, Newtons, ...)
Angles are in degrees.

endheader
time	glut_med1_r	glut_med2_r	glut_med3_r	glut_min1_r	glut_min2_r	glut_min3_r	semimem_r	semiten_r	bifemlh_r	bifemsh_r	sar_r	add_long_r	add_brev_r	add_mag1_r	add_mag2_r	add_mag3_r	tfl_r	pect_r	grac_r	glut_max1_r	glut_max2_r	glut_max3_r	iliacus_r	psoas_r	quad_fem_r	gem_r	peri_r	rect_fem_r	vas_med_r	vas_int_r	vas_lat_r	med_gas_r	lat_gas_r	soleus_r	tib_post_r	flex_dig_r	flex_hal_r	tib_ant_r	per_brev_r	per_long_r	per_tert_r	ext_dig_r	ext_hal_r	glut_med1_l	glut_med2_l	glut_med3_l	glut_min1_l	glut_min2_l	glut_min3_l	semimem_l	semiten_l	bifemlh_l	bifemsh_l	sar_l	add_long_l	add_brev_l	add_mag1_l	add_mag2_l	add_mag3_l	tfl_l	pect_l	grac_l	glut_max1_l	glut_max2_l	glut_max3_l	iliacus_l	psoas_l	quad_fem_l	gem_l	peri_l	rect_fem_l	vas_med_l	vas_int_l	vas_lat_l	med_gas_l	lat_gas_l	soleus_l	tib_post_l	flex_dig_l	flex_hal_l	tib_ant_l	per_brev_l	per_long_l	per_tert_l	ext_dig_l	ext_hal_l	ercspn_r	ercspn_l	intobl_r	intobl_l	extobl_r	extobl_l	femur_lat_meniscii_r.femur_lat_r.force.X	femur_lat_meniscii_r.femur_lat_r.force.Y	femur_lat_meniscii_r.femur_lat_r.force.Z	femur_lat_meniscii_r.femur_lat_r.torque.X	femur_lat_meniscii_r.femur_lat_r.torque.Y	femur_lat_meniscii_r.femur_lat_r.torque.Z	femur_lat_meniscii_r.meniscus_lat_r.force.X	femur_lat_meniscii_r.meniscus_lat_r.force.Y	femur_lat_meniscii_r.meniscus_lat_r.force.Z	femur_lat_meniscii_r.meniscus_lat_r.torque.X	femur_lat_meniscii_r.meniscus_lat_r.torque.Y	femur_lat_meniscii_r.meniscus_lat_r.torque.Z	femur_med_meniscii_r.femur_med_r.force.X	femur_med_meniscii_r.femur_med_r.force.Y	femur_med_meniscii_r.femur_med_r.force.Z	femur_med_meniscii_r.femur_med_r.torque.X	femur_med_meniscii_r.femur_med_r.torque.Y	femur_med_meniscii_r.femur_med_r.torque.Z	femur_med_meniscii_r.meniscus_med_r.force.X	femur_med_meniscii_r.meniscus_med_r.force.Y	femur_med_meniscii_r.meniscus_med_r.force.Z	femur_med_meniscii_r.meniscus_med_r.torque.X	femur_med_meniscii_r.meniscus_med_r.torque.Y	femur_med_meniscii_r.meniscus_med_r.torque.Z	femur_med_tibia_r.tibia_upper_r.force.X	femur_med_tibia_r.tibia_upper_r.force.Y	femur_med_tibia_r.tibia_upper_r.force.Z	femur_med_tibia_r.tibia_upper_r.torque.X	femur_med_tibia_r.tibia_upper_r.torque.Y	femur_med_tibia_r.tibia_upper_r.torque.Z	femur_med_tibia_r.femur_med_r.force.X	femur_med_tibia_r.femur_med_r.force.Y	femur_med_tibia_r.femur_med_r.force.Z	femur_med_tibia_r.femur_med_r.torque.X	femur_med_tibia_r.femur_med_r.torque.Y	femur_med_tibia_r.femur_med_r.torque.Z	femur_lat_tibia_r.tibia_upper_r.force.X	femur_lat_tibia_r.tibia_upper_r.force.Y	femur_lat_tibia_r.tibia_upper_r.force.Z	femur_lat_tibia_r.tibia_upper_r.torque.X	femur_lat_tibia_r.tibia_upper_r.torque.Y	femur_lat_tibia_r.tibia_upper_r.torque.Z	femur_lat_tibia_r.femur_lat_r.force.X	femur_lat_tibia_r.femur_lat_r.force.Y	femur_lat_tibia_r.femur_lat_r.force.Z	femur_lat_tibia_r.femur_lat_r.torque.X	femur_lat_tibia_r.femur_lat_r.torque.Y	femur_lat_tibia_r.femur_lat_r.torque.Z	aACL_R	pACL_R	aPCL_R	pPCL_R	aMCL_R	mMCL_R	pMCL_R	aLCL_R	mLCL_R	pLCL_R	aPCL_L	pPCL_L	aMCL_L	aLCL_L
      0.16946625	     11.19758387	      8.17701349	      8.79261785	      3.77860625	      4.39723695	      4.74334498	      6.04100334	    166.58535181	    173.52359234	    335.82077533	    126.77216226	      8.13628915	      5.86576972	      4.01469650	      3.56436635	      5.99861514	      6.29110513	      3.18900590	     98.12876597	      5.27935922	      8.03087876	      6.03314848	     27.23654132	     18.17497221	      5.19376964	      3.60477220	      6.18520084	     49.64891243	     29.69870737	     31.85669572	     43.18368856	      0.00000000	      0.00000000	      0.00000000	      0.00000000	      0.00000000	      0.00000000	     37.62951911	      3.71424421	      4.25603561	     24.01840436	     36.92645011	      9.52800045	     11.19758387	      8.17701349	      8.79261785	      3.77860625	      4.39723695	      4.74334498	      0.00000000	      6.05166003	     11.94938997	     10.33729188	      2.15618247	      8.13628915	      5.86576972	      4.01469650	      3.56436635	      5.99861514	      5.34136039	      3.18900590	      2.22510770	      5.27935922	      8.03087876	      6.03314848	     27.23654132	     18.17497221	      5.19376964	      3.60477220	      6.18520084	     16.61595756	      0.00000000	      0.00000000	      0.00000000	     21.03687116	      9.92216693	     49.82099633	     50.47066984	      5.33633943	      4.77071376	     12.94548415	      6.91598843	     17.87210199	      2.81030792	      8.63245753	      2.71633929	     35.56527957	     35.56527957	     13.19384501	     13.19384501	     30.58406352	     30.58406352	    370.95351919	    274.31614024	     94.81619079	    -44.82222685	      9.24777920	    148.64994919	   -370.95351919	   -274.31614024	    -94.81619079	      8.85638144	    -11.83939370	     -0.44131001	    773.33283761	    493.69601393	    -44.96367403	     27.60391753	    -14.69344823	    307.78698641	   -773.33283761	   -493.69601393	     44.96367403	     -9.13644118	     13.77405881	     -0.25858069	   -136.98436024	   -299.34186850	    105.52061724	     -6.59092896	      4.33976095	      3.84049706	    136.98436024	    299.34186850	   -105.52061724	     47.98562040	     -2.69993695	     54.54897665	      0.00000000	      0.00000000	      0.00000000	      0.00000000	      0.00000000	      0.00000000	      0.00000000	      0.00000000	      0.00000000	      0.00000000	      0.00000000	      0.00000000	     29.91369980	     19.76794217	    803.03142000	    516.04944381	      0.00000000	      0.00000000	      0.00000000	    -15.49008560	      0.00000000	      0.00000000	      0.00000000	      0.00000000	      0.00000001	      0.00000000
      0.16995356	     11.17507837	      8.16093824	      8.77512435	      3.77148332	      4.38944729	      4.73339046	      4.17043064	    166.62888383	    173.47751647	    335.32167286	    126.70400430	      8.12010927	      5.85481525	      4.02863852	      3.55723049	      5.98568251	      6.27426072	      3.18295164	     98.08252647	      5.26894166	      8.01499525	      6.02102857	     27.20694510	     18.14122611	      5.18376553	      3.59989358	      6.17913074	     49.97725866	     29.66266480	     31.82510311	     43.14531757	      0.00000000	      0.00000000	      0.00000000	      0.00000000	      0.00000000	      0.00000000	     37.69524753	      3.76492184	      4.33133955	     51.15502859	     37.18374898	      9.58517109	     11.17507837	      8.16093824	      8.77512435	      3.77148332	      4.38944729	      4.73339046	      0.00000000	      6.03899838	     11.92425990	     10.31735811	      2.15213690	      8.12010927	      5.85481525	      4.02863852	      3.55723049	      5.98568251	      5.33338458	      3.18295164	      2.22085935	      5.26894166	      8.01499525	      6.02102857	     27.20694510	     18.14122611	      5.18376553	      3.59989358	      6.17913074	     16.57848176	      0.00000000	      0.00000000	      0.00000000	     21.02223204	      9.91366437	     49.72634282	     50.42250822	      5.32452800	      4.75957870	     12.91769621	      6.90028553	     17.84222511	      2.80510850	      8.61524975	      2.71148753	     35.49808579	     35.49808579	     13.16689752	     13.16689752	     30.55965312	     30.55965312	    374.99938916	    276.68403296	     94.74489478	    -44.83974946	      9.32492241	    150.25757578	   -374.99938916	   -276.68403296	    -94.74489478	      8.89805501	    -11.92760943	     -0.40005110	    774.51760474	    494.24855611	    -45.87624873	     27.89575181	    -14.60377871	    308.19177378	   -774.51760474	   -494.24855611	     45.87624873	     -9.07780106	     13.71099195	     -0.11131888	   -139.23229676	   -299.67589487	    104.32000635	     -6.54890204	      4.34683116	      3.83504571	    139.23229676	    299.67589487	   -104.32000635	     47.48380893	     -2.72445135	     55.45990105	      0.00000000	      0.00000000	      0.00000000	      0.00000000	      0.00000000	      0.00000000	      0.00000000	      0.00000000	      0.00000000	      0.00000000	      0.00000000	      0.00000000	     29.50033336	     19.36655545	    807.07640618	    517.49660021	      0.00000000	      0.00000000	      0.00000000	    -16.99820867	      0.00000000	      0.00000000	      0.00000000	      0.00000000	      0.00000001	      0.00000000
      0.17036098	     11.15634382	      8.14757861	      8.76058628	      3.76556335	      4.38297351	      4.72511722	      2.70564826	    166.67531313	    173.44563674	    335.02727136	    126.66380563	      8.10666291	      5.84571067	      4.03771134	      3.55130023	      5.97493463	      6.25891586	      3.17791993	     98.05695049	      5.26028420	      8.00179534	      6.01095647	     27.18235068	     18.11318363	      5.17545124	      3.59583968	      6.17399835	     50.26559828	     29.66257919	     31.82011480	     43.13661479	      0.00000000	      0.00000000	      0.00000000	      0.00000000	      0.00000000	      0.00000000	     37.74788474	      3.80428920	      4.39162366	     53.01621637	     37.40322794	      9.63386515	     11.15634382	      8.14757861	      8.76058628	      3.76556335	      4.38297351	      4.72511722	      0.00000000	      6.02847603	     11.90333430	     10.30079147	      2.14877454	      8.10666291	      5.84571067	      4.03771134	      3.55130023	      5.97493463	      5.32675565	      3.17791993	      2.21732856	      5.26028420	      8.00179534	      6.01095647	     27.18235068	     18.11318363	      5.17545124	      3.59583968	      6.17399835	     16.54732810	      0.00000000	      0.00000000	      0.00000000	     21.00980098	      9.90647473	     49.64733281	     50.38242959	      5.31458839	      4.75018131	     12.89457983	      6.88722441	     17.81733829	      2.80078779	      8.60114100	      2.70753151	     35.44224018	     35.44224018	     13.14450296	     13.14450296	     30.53936853	     30.53936853	    379.97989908	    275.87589236	     95.33173308	    -45.05325716	      9.43958375	    152.29751917	   -379.97989908	   -275.87589236	    -95.33173308	      8.87587487	    -12.06702081	     -0.49576179	    781.28335423	    498.49337669	    -47.82565633	     28.72888505	    -14.69653798	    310.84154827	   -781.28335423	   -498.49337669	     47.82565633	     -9.15150342	     13.83542994	      0.00051586	   -141.15783087	   -299.27391687	    103.61715097	     -6.51490257	      4.36174650	      3.81142485	    141.15783087	    299.27391687	   -103.61715097	     47.17988305	     -2.74850557	     56.24602039	      0.00000000	      0.00000000	      0.00000000	      0.00000000	      0.00000000	      0.00000000	      0.00000000	      0.00000000	      0.00000000	      0.00000000	      0.00000000	      0.00000000	     29.64023439	     19.45038977	    810.50309862	    518.91424994	      0.00000000	      0.00000000	      0.00000000	    -17.43831432	      0.00000000	      0.00000000	      0.00000000	      0.00000000	      0.00000001	      0.00000000
      0.17071732	     11.14001994	      8.13595390	      8.74793634	      3.76041191	      4.37734040	      4.71791811	      1.49506712	    166.73033534	    173.42242726	    334.85467039	    126.64708364	      8.09496289	      5.83778795	      4.04398480	      3.54614019	      5.96558251	      6.24539796	      3.17354149	     98.04895485	      5.25275121	      7.99030989	      6.00219265	     27.16095167	     18.08878493	      5.16821651	      3.59231266	      6.16946762	     50.51605162	     29.64382508	     31.80583328	     43.11943067	      0.00000000	      0.00000000	      0.00000000	      0.00000000	      0.00000000	      0.00000000	     37.79247916	      3.83718202	      4.44296199	     40.52527281	     37.58971408	      9.67544638	     11.14001994	      8.13595390	      8.74793634	      3.76041191	      4.37734040	      4.71791811	      0.00000000	      6.01932039	     11.88509637	     10.28637597	      2.14584867	      8.09496289	      5.83778795	      4.04398480	      3.54614019	      5.96558251	      5.32098722	      3.17354149	      2.21425619	      5.25275121	      7.99030989	      6.00219265	     27.16095167	     18.08878493	      5.16821651	      3.59231266	      6.16946762	     16.52021376	      0.00000000	      0.00000000	      0.00000000	     20.99878750	      9.90012721	     49.57832879	     50.34751682	      5.30584692	      4.74189681	     12.87444888	      6.87585143	     17.79564143	      2.79702845	      8.58900629	      2.70414526	     35.39364460	     35.39364460	     13.12501711	     13.12501711	     30.52171971	     30.52171971	    381.54257497	    277.59500017	     97.07037587	    -45.79977162	      9.49209309	    152.90256906	   -381.54257497	   -277.59500017	    -97.07037587	      8.94856542	    -12.15778130	     -0.43292326	    782.83124686	    483.93881429	    -47.23952354	     28.12955486	    -14.65954357	    311.59694367	   -782.83124686	   -483.93881429	     47.23952354	     -8.81311923	     13.79347629	     -0.36633179	   -142.16646160	   -299.56697591	    103.33960085	     -6.50306727	      4.37592438	      3.82832605	    142.16646160	    299.56697591	   -103.33960085	     47.06351869	     -2.76290861	     56.64744573	      0.00000000	      0.00000000	      0.00000000	      0.00000000	      0.00000000	      0.00000000	      0.00000000	      0.00000000	      0.00000000	      0.00000000	      0.00000000	      0.00000000	     29.57701430	     19.43592395	    813.68243842	    520.70666547	      0.00000000	      0.00000000	      0.00000000	    -17.69367153	      0.00000000	      0.00000000	      0.00000000	      0.00000000	      0.00000001	      0.00000000
